# xmcd
#
# Track frame offsets: 
#        150
#        7517
#        31347
#        40350
#        54204
#        71303
#        89778
#        107681
#        142056
#        158144
#        172061
#        186162
#        203625
#        218784
#        236087
#        251862
#        264421
#        275629
#        297059
#        305221
#        321043
#
# Disc length: 4599 seconds
#
# Revision: 0
# Processed by: cddbd v1.5.2PL0 Copyright (c) Steve Scherf et al.
# Submitted via: ExactAudioCopy v1.3
#
DISCID=3511f515
DTITLE=Dalima - Cutthroat
DYEAR=2015
DGENRE=The Wicked Shit
TTITLE0=Cutthroat (Intro)
TTITLE1=Stupid Bitch
TTITLE2=Armed
TTITLE3=The Heist
TTITLE4=Deap Throat
TTITLE5=P.I.L.L. (Purpose In Living Life)
TTITLE6=We Are Not The Same
TTITLE7=K.I.L.L. (Keeping Individuals Lyrically Lost)
TTITLE8=The Return
TTITLE9=S.T.F.U. (Shut The Fuck Up)
TTITLE10=Trust Nobody
TTITLE11=U.A.F.W.M. (U Ain't Fuckin' Wit Me)
TTITLE12=Hands Like This
TTITLE13=Face Down
TTITLE14=Madesicc Anthem
TTITLE15=S.A.D. (Succ a Dick)
TTITLE16=Bipolar
TTITLE17=Num
TTITLE18=Outro
TTITLE19=My Weekness
TTITLE20=Fingerprints -N- Ducctape
EXTD=
EXTT0=
EXTT1=
EXTT2=
EXTT3=
EXTT4=
EXTT5=
EXTT6=
EXTT7=
EXTT8=
EXTT9=
EXTT10=
EXTT11=
EXTT12=
EXTT13=
EXTT14=
EXTT15=
EXTT16=
EXTT17=
EXTT18=
EXTT19=
EXTT20=
PLAYORDER=
